<?xml version="1.0" encoding="utf-8"?>
<svg xmlns="http://www.w3.org/2000/svg" viewBox="0 0 540 360" xmlns:bx="https://boxy-svg.com">
  <defs>
    <bx:export>
      <bx:file format="png" path="ntccposter.png" width="5400" height="3600" dpi="150"/>
    </bx:export>
    <linearGradient gradientUnits="userSpaceOnUse" bx:pinned="true" id="color-0">
      <stop style="stop-color: #222831;"/>
    </linearGradient>
    <linearGradient gradientUnits="userSpaceOnUse" bx:pinned="true" id="color-1" gradientTransform="matrix(1, 0, 0, 1, 0, 6)">
      <stop style="stop-color: #393e46;"/>
    </linearGradient>
    <linearGradient gradientUnits="userSpaceOnUse" bx:pinned="true" id="color-2">
      <stop style="stop-color: #00adb5;"/>
    </linearGradient>
    <linearGradient id="color-4" bx:pinned="true" gradientUnits="userSpaceOnUse" gradientTransform="matrix(1, 0, 0, 1, 62.07756, 118.449547)">
      <stop style="stop-color: rgb(26, 123, 124);"/>
    </linearGradient>
    <linearGradient gradientUnits="userSpaceOnUse" bx:pinned="true" id="color-3">
      <stop style="stop-color: #eeeeee;"/>
    </linearGradient>
    <linearGradient id="color-5" gradientUnits="userSpaceOnUse" bx:pinned="true" gradientTransform="matrix(1, 0, 0, 0.869573, 0.603, 47.458878)">
      <stop style="stop-color: rgb(236, 216, 161)"/>
    </linearGradient>
    <style bx:fonts="Lato">@import url(https://fonts.googleapis.com/css2?family=Lato%3Aital%2Cwght%400%2C100%3B0%2C300%3B0%2C400%3B0%2C700%3B0%2C900%3B1%2C100%3B1%2C300%3B1%2C400%3B1%2C700%3B1%2C900&amp;display=swap);</style>
  </defs>
  <rect y="0.025" width="540" height="360" style="stroke: rgb(0, 0, 0); fill: rgb(255, 255, 255); stroke-width: 0px;"/>
  <text font-size="13" style="fill: rgb(222, 251, 194); white-space: pre; font-family: &quot;Droid Sans Mono&quot;; perspective-origin: 4.32812px 1.5px; font-size: 13px;" x="367.013" y="288.387" transform="matrix(0.993191, 0, 0, 1, 0.820283, 0)">C</text>
  <text font-size="13" style="fill: rgb(247, 246, 189); white-space: pre; font-family: &quot;Droid Sans Mono&quot;; perspective-origin: 19.8594px 1.5px; font-size: 13px;" x="77.013" y="73.387" transform="matrix(0.993191, 0, 0, 1, 0.820283, 0)">clusters</text>
  <text font-size="13" style="fill: rgb(247, 246, 189); white-space: pre; font-family: &quot;Droid Sans Mono&quot;; perspective-origin: 6.85938px 1.5px; font-size: 13px;" x="127.013" y="169.387" transform="matrix(0.993191, 0, 0, 1, 0.820283, 0)">AI</text>
  <text font-size="13" style="fill: rgb(239, 248, 191); white-space: pre; font-family: &quot;Droid Sans Mono&quot;; perspective-origin: 18.4219px 1.5px; font-size: 13px;" x="185.013" y="145.387" transform="matrix(0.993191, 0, 0, 1, 0.820283, 0)">CUDA</text>
  <text font-size="13" style="fill: rgb(225, 250, 193); white-space: pre; font-family: &quot;Droid Sans Mono&quot;; perspective-origin: 13px 1.5px; font-size: 13px;" x="462.013" y="217.387" transform="matrix(0.993191, 0, 0, 1, 0.820283, 0)">GPU</text>
  <text font-size="13" style="fill: rgb(227, 250, 193); white-space: pre; font-family: &quot;Droid Sans Mono&quot;; perspective-origin: 11.5625px 1.5px; font-size: 13px;" x="487.013" y="228.387" transform="matrix(0.993191, 0, 0, 1, 0.820283, 0)">MPI</text>
  <text font-size="13" style="fill: rgb(238, 248, 191); white-space: pre; font-family: &quot;Droid Sans Mono&quot;; perspective-origin: 11.9219px 1.5px; font-size: 13px;" x="173.013" y="125.387" transform="matrix(0.993191, 0, 0, 1, 0.820283, 0)">bash</text>
  <text transform="matrix(0, -1, 0.993191, 0, 430.884705, 210.386139)" font-size="13" style="fill: rgb(206, 253, 196); white-space: pre; font-family: &quot;Droid Sans Mono&quot;; perspective-origin: 6.85938px 1.5px; font-size: 13px;">git</text>
  <text font-size="13" style="fill: rgb(237, 248, 191); white-space: pre; font-family: &quot;Droid Sans Mono&quot;; perspective-origin: 12.2812px 1.5px; font-size: 13px;" x="317.013" y="225.387" transform="matrix(0.993191, 0, 0, 1, 0.820283, 0)">SQL</text>
  <text font-size="13" style="fill: rgb(228, 250, 193); white-space: pre; font-family: &quot;Droid Sans Mono&quot;; perspective-origin: 31.0312px 1.5px; font-size: 13px;" x="11.013" y="114.387" transform="matrix(0.993191, 0, 0, 1, 0.820283, 0)">accelerators</text>
  <text font-size="13" style="fill: rgb(214, 252, 195); white-space: pre; font-family: &quot;Droid Sans Mono&quot;; perspective-origin: 24.5469px 1.5px; font-size: 13px;" x="208.013" y="85.387" transform="matrix(0.993191, 0, 0, 1, 0.820283, 0)">advanced</text>
  <text font-size="13" style="fill: rgb(239, 248, 191); white-space: pre; font-family: &quot;Droid Sans Mono&quot;; perspective-origin: 35.0156px 1.5px; font-size: 13px;" x="218.013" y="173.387" transform="matrix(0.993191, 0, 0, 1, 0.820283, 0)">cybersecurity</text>
  <text font-size="13" style="fill: rgb(248, 246, 189); white-space: pre; font-family: &quot;Droid Sans Mono&quot;; perspective-origin: 16.9531px 1.5px; font-size: 13px;" x="142.013" y="110.387" transform="matrix(0.993191, 0, 0, 1, 0.820283, 0)">chapel</text>
  <text font-size="13" style="fill: rgb(200, 254, 197); white-space: pre; font-family: &quot;Droid Sans Mono&quot;; perspective-origin: 23.8125px 1.5px; font-size: 13px;" x="343.013" y="188.387" transform="matrix(0.993191, 0, 0, 1, 0.820283, 0)">paraview</text>
  <text font-size="13" style="fill: rgb(227, 250, 193); white-space: pre; font-family: &quot;Droid Sans Mono&quot;; perspective-origin: 23.1094px 1.5px; font-size: 13px;" x="375.013" y="116.387" transform="matrix(0.993191, 0, 0, 1, 0.820283, 0)">analytics</text>
  <text transform="matrix(0, -1, 0.993191, 0, 471.60553, 114.386139)" font-size="13" style="fill: rgb(244, 247, 190); white-space: pre; font-family: &quot;Droid Sans Mono&quot;; perspective-origin: 20.75px 1.5px; font-size: 13px;">big data</text>
  <text font-size="13" style="fill: rgb(221, 251, 194); white-space: pre; font-family: &quot;Droid Sans Mono&quot;; perspective-origin: 37.9062px 1.5px; font-size: 13px;" x="73.013" y="313.387" transform="matrix(0.993191, 0, 0, 1, 0.820283, 0)">bioinformatics</text>
  <text font-size="13" style="fill: rgb(239, 248, 191); white-space: pre; font-family: &quot;Droid Sans Mono&quot;; perspective-origin: 30.6875px 1.5px; font-size: 13px;" x="268.013" y="152.387" transform="matrix(0.993191, 0, 0, 1, 0.820283, 0)">biostatistics</text>
  <text font-size="13" style="fill: rgb(230, 249, 192); white-space: pre; font-family: &quot;Droid Sans Mono&quot;; perspective-origin: 14.4375px 1.5px; font-size: 13px;" x="211.013" y="263.387" transform="matrix(0.993191, 0, 0, 1, 0.820283, 0)">cloud</text>
  <text transform="matrix(0, -1, 0.993191, 0, 529.210571, 140.386139)" font-size="13" style="fill: rgb(255, 245, 188); white-space: pre; font-family: &quot;Droid Sans Mono&quot;; perspective-origin: 37.1875px 1.5px; font-size: 13px;">computational</text>
  <text font-size="13" style="fill: rgb(224, 250, 193); white-space: pre; font-family: &quot;Droid Sans Mono&quot;; perspective-origin: 26.7031px 1.5px; font-size: 13px;" x="398.013" y="157.387" transform="matrix(0.993191, 0, 0, 1, 0.820283, 0)">containers</text>
  <text transform="matrix(0, -1, 0.993191, 0, 41.55394, 156.386139)" font-size="13" style="fill: rgb(220, 251, 194); white-space: pre; font-family: &quot;Droid Sans Mono&quot;; perspective-origin: 10.8281px 1.5px; font-size: 13px;">data</text>
  <text font-size="13" style="fill: rgb(252, 246, 189); white-space: pre; font-family: &quot;Droid Sans Mono&quot;; perspective-origin: 45.6562px 1.5px; font-size: 13px;" x="27.013" y="234.387" transform="matrix(0.993191, 0, 0, 1, 0.820283, 0)">data management</text>
  <text font-size="13" style="fill: rgb(230, 249, 192); white-space: pre; font-family: &quot;Droid Sans Mono&quot;; perspective-origin: 24.9062px 1.5px; font-size: 13px;" x="429.013" y="249.387" transform="matrix(0.993191, 0, 0, 1, 0.820283, 0)">databases</text>
  <text font-size="13" style="fill: rgb(219, 251, 194); white-space: pre; font-family: &quot;Droid Sans Mono&quot;; perspective-origin: 35.1875px 1.5px; font-size: 13px;" x="307.013" y="253.387" transform="matrix(0.993191, 0, 0, 1, 0.820283, 0)">deep learning</text>
  <text font-size="13" style="fill: rgb(244, 247, 190); white-space: pre; font-family: &quot;Droid Sans Mono&quot;; perspective-origin: 51.0938px 1.5px; font-size: 13px;" x="221.013" y="94.387" transform="matrix(0.993191, 0, 0, 1, 0.820283, 0)">distributed memory</text>
  <text font-size="13" style="fill: rgb(239, 248, 191); white-space: pre; font-family: &quot;Droid Sans Mono&quot;; perspective-origin: 24.9062px 1.5px; font-size: 13px;" x="242.013" y="216.387" transform="matrix(0.993191, 0, 0, 1, 0.820283, 0)">dynamics</text>
  <text font-size="13" style="fill: rgb(233, 249, 192); white-space: pre; font-family: &quot;Droid Sans Mono&quot;; perspective-origin: 12.2812px 1.5px; font-size: 13px;" x="487.013" y="278.387" transform="matrix(0.993191, 0, 0, 1, 0.820283, 0)">fluid</text>
  <text font-size="13" style="fill: rgb(226, 250, 193); white-space: pre; font-family: &quot;Droid Sans Mono&quot;; perspective-origin: 17.6875px 1.5px; font-size: 13px;" x="82.013" y="106.387" transform="matrix(0.993191, 0, 0, 1, 0.820283, 0)">fortran</text>
  <text font-size="13" style="fill: rgb(246, 247, 189); white-space: pre; font-family: &quot;Droid Sans Mono&quot;; perspective-origin: 24.9062px 1.5px; font-size: 13px;" x="404.013" y="290.387" transform="matrix(0.993191, 0, 0, 1, 0.820283, 0)">genomics</text>
  <text font-size="13" style="fill: rgb(231, 249, 192); white-space: pre; font-family: &quot;Droid Sans Mono&quot;; perspective-origin: 29.2344px 1.5px; font-size: 13px;" x="417.013" y="182.387" transform="matrix(0.993191, 0, 0, 1, 0.820283, 0)">sequencing</text>
  <text font-size="13" style="fill: rgb(213, 252, 195); white-space: pre; font-family: &quot;Droid Sans Mono&quot;; perspective-origin: 36.1094px 1.5px; font-size: 13px;" x="280.013" y="59.387" transform="matrix(0.993191, 0, 0, 1, 0.820283, 0)">neuroimaging</text>
  <text font-size="13" style="fill: rgb(232, 249, 192); white-space: pre; font-family: &quot;Droid Sans Mono&quot;; perspective-origin: 75.4531px 1.5px; font-size: 13px;" x="250.013" y="275.387" transform="matrix(0.993191, 0, 0, 1, 0.820283, 0)">high performance computing</text>
  <text font-size="13" style="fill: rgb(225, 250, 193); white-space: pre; font-family: &quot;Droid Sans Mono&quot;; perspective-origin: 12.6406px 1.5px; font-size: 13px;" x="1.013" y="212.387" transform="matrix(0.993191, 0, 0, 1, 0.820283, 0)">HPC</text>
  <text font-size="13" style="fill: rgb(223, 250, 193); white-space: pre; font-family: &quot;Droid Sans Mono&quot;; perspective-origin: 32.4844px 1.5px; font-size: 13px;" x="39.013" y="86.387" transform="matrix(0.993191, 0, 0, 1, 0.820283, 0)">intermediate</text>
  <text font-size="13" style="fill: rgb(202, 254, 197); white-space: pre; font-family: &quot;Droid Sans Mono&quot;; perspective-origin: 31.7656px 1.5px; font-size: 13px;" x="438.013" y="167.387" transform="matrix(0.993191, 0, 0, 1, 0.820283, 0)">introduction</text>
  <text font-size="13" style="fill: rgb(213, 252, 195); white-space: pre; font-family: &quot;Droid Sans Mono&quot;; perspective-origin: 38.0938px 1.5px; font-size: 13px;" x="189.013" y="292.387" transform="matrix(0.993191, 0, 0, 1, 0.820283, 0)">job scheduling</text>
  <text font-size="13" style="fill: rgb(238, 248, 191); white-space: pre; font-family: &quot;Droid Sans Mono&quot;; perspective-origin: 11.5469px 1.5px; font-size: 13px;" x="147.013" y="285.387" transform="matrix(0.993191, 0, 0, 1, 0.820283, 0)">julia</text>
  <text font-size="13" style="fill: rgb(243, 247, 190); white-space: pre; font-family: &quot;Droid Sans Mono&quot;; perspective-origin: 18.4062px 1.5px; font-size: 13px;" x="231.013" y="112.387" transform="matrix(0.993191, 0, 0, 1, 0.820283, 0)">jupyter</text>
  <text font-size="13" style="fill: rgb(210, 253, 196); white-space: pre; font-family: &quot;Droid Sans Mono&quot;; perspective-origin: 13.3594px 1.5px; font-size: 13px;" x="339.013" y="164.387" transform="matrix(0.993191, 0, 0, 1, 0.820283, 0)">linux</text>
  <text font-size="13" style="fill: rgb(205, 254, 196); white-space: pre; font-family: &quot;Droid Sans Mono&quot;; perspective-origin: 44.9375px 1.5px; font-size: 13px;" x="14.013" y="271.387" transform="matrix(0.993191, 0, 0, 1, 0.820283, 0)">machine learning</text>
  <text transform="matrix(0, -1, 0.993191, 0, 165.702774, 271.386139)" font-size="13" style="fill: rgb(213, 252, 195); white-space: pre; font-family: &quot;Droid Sans Mono&quot;; perspective-origin: 52.5312px 1.5px; font-size: 13px;">molecular dynamics</text>
  <text font-size="13" style="fill: rgb(240, 248, 190); white-space: pre; font-family: &quot;Droid Sans Mono&quot;; perspective-origin: 43.1406px 1.5px; font-size: 13px;" x="294.013" y="78.387" transform="matrix(0.993191, 0, 0, 1, 0.820283, 0)">national systems</text>
  <text font-size="13" style="fill: rgb(210, 253, 195); white-space: pre; font-family: &quot;Droid Sans Mono&quot;; perspective-origin: 41.6875px 1.5px; font-size: 13px;" x="300.013" y="310.387" transform="matrix(0.993191, 0, 0, 1, 0.820283, 0)">neural networks</text>
  <text font-size="13" style="fill: rgb(201, 254, 197); white-space: pre; font-family: &quot;Droid Sans Mono&quot;; perspective-origin: 37.9062px 1.5px; font-size: 13px;" x="44.013" y="178.387" transform="matrix(0.993191, 0, 0, 1, 0.820283, 0)">neuroanalytics</text>
  <text font-size="13" style="fill: rgb(217, 252, 194); white-space: pre; font-family: &quot;Droid Sans Mono&quot;; perspective-origin: 20.9375px 1.5px; font-size: 13px;" x="447.013" y="263.387" transform="matrix(0.993191, 0, 0, 1, 0.820283, 0)">openmp</text>
  <text font-size="13" style="fill: rgb(231, 249, 192); white-space: pre; font-family: &quot;Droid Sans Mono&quot;; perspective-origin: 56.5px 1.5px; font-size: 13px;" x="171.013" y="202.387" transform="matrix(0.993191, 0, 0, 1, 0.820283, 0)">parallel programming</text>
  <text font-size="12" style="fill: rgb(205, 253, 196); white-space: pre; font-family: &quot;Droid Sans Mono&quot;; perspective-origin: 51.1406px 1.5px; font-size: 12px;" x="352.013" y="137.387" transform="matrix(0.993191, 0, 0, 1, 0.820283, 0)">performance analysis</text>
  <text font-size="12" style="fill: rgb(202, 254, 197); white-space: pre; font-family: &quot;Droid Sans Mono&quot;; perspective-origin: 21px 1.5px; font-size: 12px;" x="25.013" y="50.387" transform="matrix(0.993191, 0, 0, 1, 0.820283, 0)">profiling</text>
  <text font-size="12" style="fill: rgb(247, 246, 189); white-space: pre; font-family: &quot;Droid Sans Mono&quot;; perspective-origin: 32.6562px 1.5px; font-size: 12px;" x="225.013" y="228.387" transform="matrix(0.993191, 0, 0, 1, 0.820283, 0)">programming</text>
  <text font-size="12" style="fill: rgb(246, 247, 190); white-space: pre; font-family: &quot;Droid Sans Mono&quot;; perspective-origin: 23.9844px 1.5px; font-size: 12px;" x="432.013" y="304.387" transform="matrix(0.993191, 0, 0, 1, 0.820283, 0)">languages</text>
  <text font-size="12" style="fill: rgb(244, 247, 190); white-space: pre; font-family: &quot;Droid Sans Mono&quot;; perspective-origin: 16.6719px 1.5px; font-size: 12px;" x="75.013" y="281.387" transform="matrix(0.993191, 0, 0, 1, 0.820283, 0)">python</text>
  <text font-size="12" style="fill: rgb(237, 248, 191); white-space: pre; font-family: &quot;Droid Sans Mono&quot;; perspective-origin: 18.3281px 1.5px; font-size: 12px;" x="6.013" y="61.387" transform="matrix(0.993191, 0, 0, 1, 0.820283, 0)">pytorch</text>
  <text font-size="12" style="fill: rgb(215, 252, 195); white-space: pre; font-family: &quot;Droid Sans Mono&quot;; perspective-origin: 48.1562px 1.5px; font-size: 12px;" x="23.013" y="246.387" transform="matrix(0.993191, 0, 0, 1, 0.820283, 0)">quantum computing</text>
  <text font-size="12" style="fill: rgb(211, 252, 195); white-space: pre; font-family: &quot;Droid Sans Mono&quot;; perspective-origin: 19.9844px 1.5px; font-size: 12px;" x="154.013" y="55.387" transform="matrix(0.993191, 0, 0, 1, 0.820283, 0)">research</text>
  <text font-size="12" style="fill: rgb(241, 247, 190); white-space: pre; font-family: &quot;Droid Sans Mono&quot;; perspective-origin: 47.1406px 1.5px; font-size: 12px;" x="193.013" y="184.387" transform="matrix(0.993191, 0, 0, 1, 0.820283, 0)">research computing</text>
  <text font-size="12" style="fill: rgb(235, 248, 191); white-space: pre; font-family: &quot;Droid Sans Mono&quot;; perspective-origin: 49.1562px 1.5px; font-size: 12px;" x="14.013" y="198.387" transform="matrix(0.993191, 0, 0, 1, 0.820283, 0)">scientific computing</text>
  <text font-size="12" style="fill: rgb(240, 248, 191); white-space: pre; font-family: &quot;Droid Sans Mono&quot;; perspective-origin: 37.1562px 1.5px; font-size: 12px;" x="48.013" y="123.387" transform="matrix(0.993191, 0, 0, 1, 0.820283, 0)">shared memory</text>
  <text font-size="12" style="fill: rgb(205, 253, 196); white-space: pre; font-family: &quot;Droid Sans Mono&quot;; perspective-origin: 11.3281px 1.5px; font-size: 12px;" x="179.013" y="243.387" transform="matrix(0.993191, 0, 0, 1, 0.820283, 0)">shell</text>
  <text font-size="12" style="fill: rgb(210, 253, 196); white-space: pre; font-family: &quot;Droid Sans Mono&quot;; perspective-origin: 13.6719px 1.5px; font-size: 12px;" x="207.013" y="278.387" transform="matrix(0.993191, 0, 0, 1, 0.820283, 0)">slurm</text>
  <text font-size="12" style="fill: rgb(241, 247, 190); white-space: pre; font-family: &quot;Droid Sans Mono&quot;; perspective-origin: 20.6562px 1.5px; font-size: 12px;" x="50.013" y="151.387" transform="matrix(0.993191, 0, 0, 1, 0.820283, 0)">software</text>
  <text font-size="12" style="fill: rgb(214, 252, 195); white-space: pre; font-family: &quot;Droid Sans Mono&quot;; perspective-origin: 41.8125px 1.5px; font-size: 12px;" x="1.013" y="221.387" transform="matrix(0.993191, 0, 0, 1, 0.820283, 0)">software libraries</text>
  <text font-size="12" style="fill: rgb(252, 246, 189); white-space: pre; font-family: &quot;Droid Sans Mono&quot;; perspective-origin: 7.67188px 1.5px; font-size: 12px;" x="119.013" y="296.387" transform="matrix(0.993191, 0, 0, 1, 0.820283, 0)">ssh</text>
  <text font-size="12" style="fill: rgb(246, 247, 189); white-space: pre; font-family: &quot;Droid Sans Mono&quot;; perspective-origin: 38.6562px 1.5px; font-size: 12px;" x="10.013" y="295.387" transform="matrix(0.993191, 0, 0, 1, 0.820283, 0)">supercomputing</text>
  <text font-size="12" style="fill: rgb(228, 250, 192); white-space: pre; font-family: &quot;Droid Sans Mono&quot;; perspective-origin: 25.6562px 1.5px; font-size: 12px;" x="454.013" y="236.387" transform="matrix(0.993191, 0, 0, 1, 0.820283, 0)">tensorflow</text>
  <text font-size="12" style="fill: rgb(210, 253, 196); white-space: pre; font-family: &quot;Droid Sans Mono&quot;; perspective-origin: 30.6562px 1.5px; font-size: 12px;" x="271.013" y="242.387" transform="matrix(0.993191, 0, 0, 1, 0.820283, 0)">visualization</text>
  <text font-size="12" style="fill: rgb(218, 251, 194); white-space: pre; font-family: &quot;Droid Sans Mono&quot;; perspective-origin: 22.3281px 1.5px; font-size: 12px;" x="378.013" y="49.387" transform="matrix(0.993191, 0, 0, 1, 0.820283, 0)">apptainer</text>
  <text font-size="12" style="fill: rgb(217, 251, 194); white-space: pre; font-family: &quot;Droid Sans Mono&quot;; perspective-origin: 19px 1.5px; font-size: 12px;" x="472.013" y="195.387" transform="matrix(0.993191, 0, 0, 1, 0.820283, 0)">security</text>
  <text font-size="12" style="fill: rgb(231, 249, 192); white-space: pre; font-family: &quot;Droid Sans Mono&quot;; perspective-origin: 28.6719px 1.5px; font-size: 12px;" x="2.013" y="164.387" transform="matrix(0.993191, 0, 0, 1, 0.820283, 0)">permissions</text>
  <text font-size="12" style="fill: rgb(210, 253, 195); white-space: pre; font-family: &quot;Droid Sans Mono&quot;; perspective-origin: 36.1562px 1.5px; font-size: 12px;" x="353.013" y="224.387" transform="matrix(0.993191, 0, 0, 1, 0.820283, 0)">version control</text>
  <text font-size="12" style="fill: rgb(226, 250, 193); white-space: pre; font-family: &quot;Droid Sans Mono&quot;; perspective-origin: 29.1406px 1.5px; font-size: 12px;" x="27.013" y="186.387" transform="matrix(0.993191, 0, 0, 1, 0.820283, 0)">data science</text>
  <text font-size="12" style="fill: rgb(250, 246, 189); white-space: pre; font-family: &quot;Droid Sans Mono&quot;; perspective-origin: 13px 1.5px; font-size: 12px;" x="219.013" y="61.387" transform="matrix(0.993191, 0, 0, 1, 0.820283, 0)">spark</text>
  <text font-size="12" style="fill: rgb(199, 255, 197); white-space: pre; font-family: &quot;Droid Sans Mono&quot;; perspective-origin: 12.3281px 1.5px; font-size: 12px;" x="101.013" y="49.387" transform="matrix(0.993191, 0, 0, 1, 0.820283, 0)">DDT</text>
  <text font-size="12" style="fill: rgb(203, 254, 197); white-space: pre; font-family: &quot;Droid Sans Mono&quot;; perspective-origin: 18.5px 1.5px; font-size: 12px;" x="236.013" y="302.387" transform="matrix(0.993191, 0, 0, 1, 0.820283, 0)">MPI IO</text>
  <text font-size="12" style="fill: rgb(206, 253, 196); white-space: pre; font-family: &quot;Droid Sans Mono&quot;; perspective-origin: 23.6719px 1.5px; font-size: 12px;" x="228.013" y="133.387" transform="matrix(0.993191, 0, 0, 1, 0.820283, 0)">workshop</text>
  <text font-size="12" style="fill: rgb(235, 248, 191); white-space: pre; font-family: &quot;Droid Sans Mono&quot;; perspective-origin: 36.5px 1.5px; font-size: 12px;" x="165.013" y="159.387" transform="matrix(0.993191, 0, 0, 1, 0.820283, 0)">summer school</text>
  <text font-size="12" style="fill: rgb(200, 254, 197); white-space: pre; font-family: &quot;Droid Sans Mono&quot;; perspective-origin: 32.1719px 1.5px; font-size: 12px;" x="43.013" y="136.387" transform="matrix(0.993191, 0, 0, 1, 0.820283, 0)">spring school</text>
  <text font-size="12" style="fill: rgb(211, 253, 195); white-space: pre; font-family: &quot;Droid Sans Mono&quot;; perspective-origin: 18px 1.5px; font-size: 12px;" x="327.013" y="122.387" transform="matrix(0.993191, 0, 0, 1, 0.820283, 0)">courses</text>
  <text font-size="12" style="fill: rgb(255, 245, 188); white-space: pre; font-family: &quot;Droid Sans Mono&quot;; perspective-origin: 18.6562px 1.5px; font-size: 12px;" x="289.013" y="104.387" transform="matrix(0.993191, 0, 0, 1, 0.820283, 0)">training</text>
  <text font-size="12" style="fill: rgb(212, 252, 195); white-space: pre; font-family: &quot;Droid Sans Mono&quot;; perspective-origin: 23.6562px 1.5px; font-size: 12px;" x="477.013" y="292.387" transform="matrix(0.993191, 0, 0, 1, 0.820283, 0)">bootcamp</text>
  <text font-size="12" style="fill: rgb(207, 253, 196); white-space: pre; font-family: &quot;Droid Sans Mono&quot;; perspective-origin: 15.6562px 1.5px; font-size: 12px;" x="348.013" y="206.387" transform="matrix(0.993191, 0, 0, 1, 0.820283, 0)">virtual</text>
  <text transform="matrix(0, -1, 0.993191, 0, 499.414886, 116.386139)" font-size="12" style="fill: rgb(241, 247, 190); white-space: pre; font-family: &quot;Droid Sans Mono&quot;; perspective-origin: 22.1562px 1.5px; font-size: 12px;">in person</text>
  <text font-size="12" style="fill: rgb(250, 246, 189); white-space: pre; font-family: &quot;Droid Sans Mono&quot;; perspective-origin: 15.6719px 1.5px; font-size: 12px;" x="381.013" y="63.387" transform="matrix(0.993191, 0, 0, 1, 0.820283, 0)">hybrid</text>
  <text font-size="12" style="fill: rgb(207, 253, 196); white-space: pre; font-family: &quot;Droid Sans Mono&quot;; perspective-origin: 4px 1.5px; font-size: 12px;" x="209.013" y="311.387" transform="matrix(0.993191, 0, 0, 1, 0.820283, 0)">C</text>
  <text font-size="12" style="fill: rgb(203, 254, 197); white-space: pre; font-family: &quot;Droid Sans Mono&quot;; perspective-origin: 18.3281px 1.5px; font-size: 12px;" x="286.013" y="133.387" transform="matrix(0.993191, 0, 0, 1, 0.820283, 0)">clusters</text>
  <text font-size="12" style="fill: rgb(238, 248, 191); white-space: pre; font-family: &quot;Droid Sans Mono&quot;; perspective-origin: 6.32812px 1.5px; font-size: 12px;" x="519.013" y="248.387" transform="matrix(0.993191, 0, 0, 1, 0.820283, 0)">AI</text>
  <text font-size="12" style="fill: rgb(242, 247, 190); white-space: pre; font-family: &quot;Droid Sans Mono&quot;; perspective-origin: 17px 1.5px; font-size: 12px;" x="171.013" y="80.387" transform="matrix(0.993191, 0, 0, 1, 0.820283, 0)">CUDA</text>
  <text font-size="12" style="fill: rgb(253, 245, 188); white-space: pre; font-family: &quot;Droid Sans Mono&quot;; perspective-origin: 12px 1.5px; font-size: 12px;" x="387.013" y="170.387" transform="matrix(0.993191, 0, 0, 1, 0.820283, 0)">GPU</text>
  <text font-size="12" style="fill: rgb(212, 252, 195); white-space: pre; font-family: &quot;Droid Sans Mono&quot;; perspective-origin: 10.6719px 1.5px; font-size: 12px;" x="498.013" y="217.387" transform="matrix(0.993191, 0, 0, 1, 0.820283, 0)">MPI</text>
  <text font-size="12" style="fill: rgb(203, 254, 197); white-space: pre; font-family: &quot;Droid Sans Mono&quot;; perspective-origin: 11px 1.5px; font-size: 12px;" x="217.013" y="143.387" transform="matrix(0.993191, 0, 0, 1, 0.820283, 0)">bash</text>
  <text transform="matrix(0, -1, 0.993191, 0, 514.312683, 315.386139)" font-size="12" style="fill: rgb(236, 248, 191); white-space: pre; font-family: &quot;Droid Sans Mono&quot;; perspective-origin: 6.32812px 1.5px; font-size: 12px;">git</text>
  <text font-size="12" style="fill: rgb(246, 246, 189); white-space: pre; font-family: &quot;Droid Sans Mono&quot;; perspective-origin: 11.3281px 1.5px; font-size: 12px;" x="282.013" y="259.387" transform="matrix(0.993191, 0, 0, 1, 0.820283, 0)">SQL</text>
  <text font-size="12" style="fill: rgb(246, 247, 189); white-space: pre; font-family: &quot;Droid Sans Mono&quot;; perspective-origin: 28.6406px 1.5px; font-size: 12px;" x="87.013" y="95.387" transform="matrix(0.993191, 0, 0, 1, 0.820283, 0)">accelerators</text>
  <text font-size="12" style="fill: rgb(228, 250, 192); white-space: pre; font-family: &quot;Droid Sans Mono&quot;; perspective-origin: 22.6562px 1.5px; font-size: 12px;" x="363.013" y="102.387" transform="matrix(0.993191, 0, 0, 1, 0.820283, 0)">advanced</text>
  <text font-size="12" style="fill: rgb(227, 250, 193); white-space: pre; font-family: &quot;Droid Sans Mono&quot;; perspective-origin: 32.3125px 1.5px; font-size: 12px;" x="365.013" y="89.387" transform="matrix(0.993191, 0, 0, 1, 0.820283, 0)">cybersecurity</text>
  <text font-size="12" style="fill: rgb(211, 253, 195); white-space: pre; font-family: &quot;Droid Sans Mono&quot;; perspective-origin: 15.6562px 1.5px; font-size: 12px;" x="41.013" y="256.387" transform="matrix(0.993191, 0, 0, 1, 0.820283, 0)">chapel</text>
  <text font-size="12" style="fill: rgb(247, 246, 189); white-space: pre; font-family: &quot;Droid Sans Mono&quot;; perspective-origin: 21.9844px 1.5px; font-size: 12px;" x="22.013" y="95.387" transform="matrix(0.993191, 0, 0, 1, 0.820283, 0)">paraview</text>
  <text font-size="12" style="fill: rgb(200, 254, 197); white-space: pre; font-family: &quot;Droid Sans Mono&quot;; perspective-origin: 21.3281px 1.5px; font-size: 12px;" x="9.013" y="285.387" transform="matrix(0.993191, 0, 0, 1, 0.820283, 0)">analytics</text>
  <text font-size="12" style="fill: rgb(255, 245, 188); white-space: pre; font-family: &quot;Droid Sans Mono&quot;; perspective-origin: 19.1562px 1.5px; font-size: 12px;" x="35.013" y="208.387" transform="matrix(0.993191, 0, 0, 1, 0.820283, 0)">big data</text>
  <text transform="matrix(0, -1, 0.993191, 0, 537.156067, 255.386139)" font-size="12" style="fill: rgb(240, 248, 190); white-space: pre; font-family: &quot;Droid Sans Mono&quot;; perspective-origin: 34.9844px 1.5px; font-size: 12px;">bioinformatics</text>
  <text font-size="12" style="fill: rgb(255, 245, 188); white-space: pre; font-family: &quot;Droid Sans Mono&quot;; perspective-origin: 28.3281px 1.5px; font-size: 12px;" x="419.013" y="125.387" transform="matrix(0.993191, 0, 0, 1, 0.820283, 0)">biostatistics</text>
  <text font-size="12" style="fill: rgb(234, 249, 192); white-space: pre; font-family: &quot;Droid Sans Mono&quot;; perspective-origin: 13.3281px 1.5px; font-size: 12px;" x="298.013" y="115.387" transform="matrix(0.993191, 0, 0, 1, 0.820283, 0)">cloud</text>
  <text font-size="12" style="fill: rgb(207, 253, 196); white-space: pre; font-family: &quot;Droid Sans Mono&quot;; perspective-origin: 34.3281px 1.5px; font-size: 12px;" x="416.013" y="315.387" transform="matrix(0.993191, 0, 0, 1, 0.820283, 0)">computational</text>
  <text font-size="12" style="fill: rgb(237, 248, 191); white-space: pre; font-family: &quot;Droid Sans Mono&quot;; perspective-origin: 24.6562px 1.5px; font-size: 12px;" x="206.013" y="74.387" transform="matrix(0.993191, 0, 0, 1, 0.820283, 0)">containers</text>
  <text font-size="12" style="fill: rgb(234, 249, 192); white-space: pre; font-family: &quot;Droid Sans Mono&quot;; perspective-origin: 10px 1.5px; font-size: 12px;" x="19.013" y="317.387" transform="matrix(0.993191, 0, 0, 1, 0.820283, 0)">data</text>
  <text font-size="11" style="fill: rgb(203, 254, 197); white-space: pre; font-family: &quot;Droid Sans Mono&quot;; perspective-origin: 38.6406px 1px; font-size: 11px;" x="303.013" y="295.387" transform="matrix(0.993191, 0, 0, 1, 0.820283, 0)">data management</text>
  <text font-size="11" style="fill: rgb(225, 250, 193); white-space: pre; font-family: &quot;Droid Sans Mono&quot;; perspective-origin: 21.0781px 1px; font-size: 11px;" x="369.013" y="242.387" transform="matrix(0.993191, 0, 0, 1, 0.820283, 0)">databases</text>
  <text font-size="11" style="fill: rgb(229, 249, 192); white-space: pre; font-family: &quot;Droid Sans Mono&quot;; perspective-origin: 29.7812px 1px; font-size: 11px;" x="219.013" y="47.387" transform="matrix(0.993191, 0, 0, 1, 0.820283, 0)">deep learning</text>
  <text font-size="10" style="fill: rgb(201, 254, 197); white-space: pre; font-family: &quot;Droid Sans Mono&quot;; perspective-origin: 39.2969px 1px; font-size: 10px;" x="169.013" y="249.387" transform="matrix(0.993191, 0, 0, 1, 0.820283, 0)">distributed memory</text>
  <text font-size="10" style="fill: rgb(197, 255, 198); white-space: pre; font-family: &quot;Droid Sans Mono&quot;; perspective-origin: 19.1562px 1px; font-size: 10px;" x="455.013" y="147.387" transform="matrix(0.993191, 0, 0, 1, 0.820283, 0)">dynamics</text>
  <text font-size="10" style="fill: rgb(196, 255, 198); white-space: pre; font-family: &quot;Droid Sans Mono&quot;; perspective-origin: 9.4375px 1px; font-size: 10px;" x="411.013" y="145.387" transform="matrix(0.993191, 0, 0, 1, 0.820283, 0)">fluid</text>
  <text font-size="10" style="fill: rgb(241, 247, 190); white-space: pre; font-family: &quot;Droid Sans Mono&quot;; perspective-origin: 13.6094px 1px; font-size: 10px;" x="306.013" y="285.387" transform="matrix(0.993191, 0, 0, 1, 0.820283, 0)">fortran</text>
  <text font-size="10" style="fill: rgb(251, 246, 189); white-space: pre; font-family: &quot;Droid Sans Mono&quot;; perspective-origin: 19.1562px 1px; font-size: 10px;" x="226.013" y="121.387" transform="matrix(0.993191, 0, 0, 1, 0.820283, 0)">genomics</text>
  <text font-size="10" style="fill: rgb(241, 247, 190); white-space: pre; font-family: &quot;Droid Sans Mono&quot;; perspective-origin: 22.5px 1px; font-size: 10px;" x="175.013" y="210.387" transform="matrix(0.993191, 0, 0, 1, 0.820283, 0)">sequencing</text>
  <text font-size="10" style="fill: rgb(251, 246, 189); white-space: pre; font-family: &quot;Droid Sans Mono&quot;; perspective-origin: 27.7656px 1px; font-size: 10px;" x="86.013" y="157.387" transform="matrix(0.993191, 0, 0, 1, 0.820283, 0)">neuroimaging</text>
  <text font-size="9" style="fill: rgb(223, 251, 193); white-space: pre; font-family: &quot;Droid Sans Mono&quot;; perspective-origin: 52.2344px 1px; font-size: 9px;" x="305.013" y="262.387" transform="matrix(0.993191, 0, 0, 1, 0.820283, 0)">high performance computing</text>
  <text font-size="9" style="fill: rgb(251, 246, 189); white-space: pre; font-family: &quot;Droid Sans Mono&quot;; perspective-origin: 8.75px 1px; font-size: 9px;" x="444.013" y="213.387" transform="matrix(0.993191, 0, 0, 1, 0.820283, 0)">HPC</text>
  <text font-size="9" style="fill: rgb(237, 248, 191); white-space: pre; font-family: &quot;Droid Sans Mono&quot;; perspective-origin: 22.4844px 1px; font-size: 9px;" x="11.013" y="73.387" transform="matrix(0.993191, 0, 0, 1, 0.820283, 0)">intermediate</text>
  <text font-size="9" style="fill: rgb(200, 254, 197); white-space: pre; font-family: &quot;Droid Sans Mono&quot;; perspective-origin: 22px 1px; font-size: 9px;" x="259.013" y="161.387" transform="matrix(0.993191, 0, 0, 1, 0.820283, 0)">introduction</text>
  <text font-size="9" style="fill: rgb(200, 254, 197); white-space: pre; font-family: &quot;Droid Sans Mono&quot;; perspective-origin: 26.375px 1px; font-size: 9px;" x="63.013" y="59.387" transform="matrix(0.993191, 0, 0, 1, 0.820283, 0)">job scheduling</text>
  <text font-size="9" style="fill: rgb(244, 247, 190); white-space: pre; font-family: &quot;Droid Sans Mono&quot;; perspective-origin: 8px 1px; font-size: 9px;" x="356.013" y="231.387" transform="matrix(0.993191, 0, 0, 1, 0.820283, 0)">julia</text>
  <text font-size="9" style="fill: rgb(206, 253, 196); white-space: pre; font-family: &quot;Droid Sans Mono&quot;; perspective-origin: 12.75px 1px; font-size: 9px;" x="179.013" y="229.387" transform="matrix(0.993191, 0, 0, 1, 0.820283, 0)">jupyter</text>
  <text font-size="9" style="fill: rgb(205, 254, 196); white-space: pre; font-family: &quot;Droid Sans Mono&quot;; perspective-origin: 9.25px 1px; font-size: 9px;" x="261.013" y="318.387" transform="matrix(0.993191, 0, 0, 1, 0.820283, 0)">linux</text>
  <text font-size="9" style="fill: rgb(204, 254, 197); white-space: pre; font-family: &quot;Droid Sans Mono&quot;; perspective-origin: 31.1094px 1px; font-size: 9px;" x="336.013" y="212.387" transform="matrix(0.993191, 0, 0, 1, 0.820283, 0)">machine learning</text>
  <text transform="matrix(0, -1, 0.993191, 0, 516.299072, 159.386139)" font-size="9" style="fill: rgb(224, 250, 193); white-space: pre; font-family: &quot;Droid Sans Mono&quot;; perspective-origin: 36.3594px 1px; font-size: 9px;">molecular dynamics</text>
  <text transform="matrix(0, -1, 0.993191, 0, 8.778648, 157.386139)" font-size="9" style="fill: rgb(247, 246, 189); white-space: pre; font-family: &quot;Droid Sans Mono&quot;; perspective-origin: 29.875px 1px; font-size: 9px;">national systems</text>
  <text font-size="9" style="fill: rgb(248, 246, 189); white-space: pre; font-family: &quot;Droid Sans Mono&quot;; perspective-origin: 28.8594px 1px; font-size: 9px;" x="255.013" y="65.387" transform="matrix(0.993191, 0, 0, 1, 0.820283, 0)">neural networks</text>
  <text font-size="9" style="fill: rgb(247, 246, 189); white-space: pre; font-family: &quot;Droid Sans Mono&quot;; perspective-origin: 26.2344px 1px; font-size: 9px;" x="347.013" y="194.387" transform="matrix(0.993191, 0, 0, 1, 0.820283, 0)">neuroanalytics</text>
  <text transform="matrix(0, -1, 0.993191, 0, 201.457642, 283.386139)" font-size="9" style="fill: rgb(200, 254, 197); white-space: pre; font-family: &quot;Droid Sans Mono&quot;; perspective-origin: 14.5px 1px; font-size: 9px;">openmp</text>
  <ellipse style="fill: rgb(216, 216, 216); stroke: rgb(0, 0, 0);" cx="375" cy="256.5" rx="46.5" ry="46.5"/>
  <ellipse style="fill: rgb(216, 216, 216); stroke: rgb(0, 0, 0);" cx="270" cy="256.5" rx="46.5" ry="46.5"/>
  <rect width="540" height="39.04" style="stroke: rgb(0, 0, 0); paint-order: fill; stroke-width: 0px; fill: rgb(236, 216, 161);"/>
  <text style="fill: rgb(51, 51, 51); font-family: Lato; font-size: 19px; font-weight: 900; white-space: pre; text-anchor: middle;" x="270" y="26.014">The National Training Coordination Council</text>
  <rect width="540" height="40" style="paint-order: fill; stroke-width: 0px; stroke: url(&quot;#color-5&quot;); fill: url(&quot;#color-5&quot;);" y="320"/>
  <rect style="fill: rgb(216, 216, 216); stroke: rgb(0, 0, 0);" x="12.126" y="90" width="126.07" height="82" rx="8" ry="8"/>
  <rect style="fill: rgb(216, 216, 216); stroke: rgb(0, 0, 0);" x="400.363" y="90" width="126.48" height="71" rx="8" ry="8"/>
  <text style="fill: rgb(51, 51, 51); font-family: Ubuntu; font-size: 7px; white-space: pre;" transform="matrix(1, 0, 0, 1, 349.854126, 3.943224)"><tspan x="24.91" y="328.019">Alliance slack:         #education_training   </tspan><tspan x="24.90999984741211" dy="1.2em">​</tspan><tspan>Email:                natcc@gw.alliancecan.ca  </tspan><tspan x="24.90999984741211" dy="1.2em">​</tspan><tspan>Explora:  https://explora.alliancecan.ca</tspan></text>
  <ellipse style="fill: rgb(216, 216, 216); stroke: rgb(0, 0, 0);" cx="60" cy="256" rx="46.5" ry="46.5"/>
  <rect style="fill: rgb(216, 216, 216); stroke: rgb(0, 0, 0);" x="46.693" y="49.229" width="446.615" height="29.145" rx="8" ry="8"/>
  <rect style="stroke: rgb(0, 0, 0); fill: rgb(255, 255, 255);" x="152.146" y="90" width="111" height="106" rx="8" ry="8"/>
  <rect style="stroke: rgb(0, 0, 0); fill: rgb(255, 255, 255);" x="275.977" y="90" width="111" height="106" rx="8" ry="8"/>
  <text style="fill: rgb(51, 51, 51); font-family: Lato; font-size: 18px; font-weight: 700; white-space: pre;" transform="matrix(1, 0, 0, 1, -17.135689, 78.677078)"><tspan x="38.176" y="178.974">EXPLORA</tspan><tspan x="38.176" dy="1em">​</tspan><tspan x="38.176" dy="1em">​</tspan></text>
  <text style="fill: rgb(51, 51, 51); font-family: &quot;Arial Black&quot;; font-size: 9px; white-space: pre;" x="202.976" y="332.336" transform="matrix(1, 0, 0, 1, -7.242691, 0)">Have ideas?<tspan x="202.9759979248047" dy="1.2em">​</tspan>Want to join a working group?<tspan x="202.9759979248047" dy="1.2em">​</tspan>Get in touch with the NTCC!</text>
  <ellipse style="fill: rgb(216, 216, 216); stroke: rgb(0, 0, 0);" cx="165" cy="256" rx="46.5" ry="46.5"/>
  <text style="fill: rgb(51, 51, 51); font-family: Lato; font-size: 18px; font-weight: 700; white-space: pre;" transform="matrix(1, 0, 0, 1, 96.824005, 78.677078)"><tspan x="38.176" y="178.974">IHPCSS</tspan><tspan x="38.176" dy="1em">​</tspan><tspan x="38.176" dy="1em">​</tspan></text>
  <text style="fill: url(&quot;#color-1&quot;); font-family: Lato; font-size: 11px; font-weight: 900; text-anchor: middle; white-space: pre;" x="207.101" y="102.673">Council Members</text>
  <text style="fill: url(&quot;#color-1&quot;); font-family: Ubuntu; font-size: 6px; white-space: pre;" transform="matrix(1, 0, 0, 1, -7.819839, -50.21814)"><tspan x="179.795" y="162.965">1 Council Chair </tspan><tspan x="179.7949981689453" dy="1.2em">​</tspan><tspan>1 Alliance representative</tspan><tspan x="179.7949981689453" dy="1.2em">​</tspan><tspan>1 Compute Ontario rep.</tspan><tspan x="179.7949981689453" dy="1.2em">​</tspan><tspan>1 Calcul Quebec rep.</tspan><tspan x="179.7949981689453" dy="1.2em">​</tspan><tspan>1 ACENET rep.</tspan><tspan x="179.7949981689453" dy="1.2em">​</tspan><tspan>1 Simon Fraser U. rep.</tspan><tspan x="179.7949981689453" dy="1.2em">​</tspan><tspan>1 U. of Alberta rep.</tspan><tspan x="179.7949981689453" dy="1.2em">​</tspan><tspan>1 U. of Victoria rep.</tspan><tspan x="179.7949981689453" dy="1.2em">​</tspan><tspan>1 Cybersecurity rep.</tspan><tspan x="179.7949981689453" dy="1.2em">​</tspan><tspan>2 RDM reps.</tspan><tspan x="179.7949981689453" dy="1.2em">​</tspan><tspan>1 AMII rep.</tspan></text>
  <text style="fill: rgb(51, 51, 51); font-family: Ubuntu; font-size: 6px; white-space: pre;" transform="matrix(1, 0, 0, 1, -2.41049, 51.351864)"><tspan x="23.398" y="62.395">Foster collaboration among  </tspan><tspan>national  <tspan x="23.398000717163086" dy="1.2em">​</tspan>DRI ecosystem players </tspan><tspan>and improve <tspan x="23.398000717163086" dy="1.2em">​</tspan>coordination of </tspan><tspan>training activities in <tspan x="23.398000717163086" dy="1.2em">​</tspan>ARC, RDM, </tspan><tspan>and Cybersecurity for the </tspan><tspan x="23.398000717163086" dy="1.2em">​</tspan><tspan>benefit of Canada's researchers.</tspan><tspan x="23.398000717163086" dy="1.2em">​</tspan><tspan x="23.398000717163086" dy="1.2em">​</tspan><tspan>Report to the Council of CTOs </tspan><tspan>and<tspan x="23.398000717163086" dy="1.2em">​</tspan>inform the Scientific  </tspan><tspan>Leadership Council.</tspan></text>
  <text style="fill: url(&quot;#color-4&quot;); font-family: Lato; font-size: 11px; font-weight: 900; text-anchor: middle; white-space: pre;" x="72.917" y="102.673">Our Mandate</text>
  <text style="fill: url(&quot;#color-4&quot;); font-family: &quot;Arial Black&quot;; font-size: 6px; white-space: pre;" transform="matrix(0.991189, 0, 0, 1, -3.691528, 15)" x="35.41" y="212.634">WORKING GROUP</text>
  <text style="fill: url(&quot;#color-4&quot;); font-family: &quot;Arial Black&quot;; font-size: 6px; white-space: pre;" x="240.621" y="227.568">WORKING GROUP</text>
  <ellipse style="fill: rgb(216, 216, 216); stroke: rgb(0, 0, 0);" cx="480" cy="256.5" rx="46.5" ry="46.5"/>
  <text style="fill: url(&quot;#color-4&quot;); font-family: &quot;Arial Black&quot;; font-size: 6px; white-space: pre;" x="345.41" y="227.568">WORKING GROUP</text>
  <text style="fill: url(&quot;#color-4&quot;); font-family: Lato; font-size: 11px; font-weight: 900; text-anchor: middle; white-space: pre;" x="461.151" y="102.673">Stakeholders</text>
  <text style="fill: rgb(51, 51, 51); font-family: Ubuntu; font-size: 6px; white-space: pre;" transform="matrix(1, 0, 0, 1, 386.983917, 51.351864)"><tspan x="23.398" y="62.395">• Council of CTOs </tspan><tspan x="23.398" dy="1.3em">​</tspan><tspan>• Scientific Leadership Council</tspan><tspan x="23.398" dy="1.3em">​</tspan><tspan>• National Training Expert Group (RDM)</tspan><tspan x="23.398" dy="1.3em">​</tspan><tspan>• National Security Council </tspan><tspan x="23.398" dy="1.3em">​</tspan><tspan>• Researcher community</tspan><tspan x="23.398" dy="1.3em">​</tspan><tspan>• DRI trainers</tspan><tspan x="23.398" dy="1.3em">​</tspan><tspan x="23.398" dy="1.3em">​</tspan></text>
  <text style="fill: rgb(51, 51, 51); font-family: Ubuntu; font-size: 8px; white-space: pre;" transform="matrix(1, 0, 0, 1, 18.397947, -4.207184)"><tspan x="23.399" y="281.596">  Training</tspan><tspan x="23.399" dy="1.2em">​</tspan><tspan> discovery</tspan></text>
  <text style="fill: rgb(51, 51, 51); font-family: Ubuntu; font-size: 8px; white-space: pre;" transform="matrix(1, 0, 0, 1, -286.274811, -1.744171)"><tspan x="427.344" y="279.133">International</tspan><tspan x="427.344" dy="1.2em">​</tspan><tspan>HPC training</tspan></text>
  <text style="fill: rgb(51, 51, 51); font-family: Lato; font-size: 14px; font-weight: 700; text-anchor: middle; white-space: pre;" transform="matrix(1, 0, 0, 1, 123.677216, 14.156587)"><tspan x="251.22" y="237.263">DATA</tspan><tspan x="251.22000122070312" dy="1em">​</tspan><tspan>COLLECTION</tspan></text>
  <text style="fill: url(&quot;#color-4&quot;); font-family: &quot;Arial Black&quot;; font-size: 6px; white-space: pre;" x="135.41" y="227.568">WORKING GROUP</text>
  <text style="fill: rgb(51, 51, 51); font-family: Lato; font-size: 18px; font-weight: 700; text-anchor: middle; text-transform: uppercase; white-space: pre;" x="270" y="257.651">COMMS</text>
  <text style="fill: rgb(51, 51, 51); font-family: Ubuntu; font-size: 8px; white-space: pre;" transform="matrix(1, 0, 0, 1, -85.343994, -2.744171)"><tspan x="427.344" y="279.133">Best practices and</tspan><tspan x="427.344" dy="1.2em">​</tspan><tspan>recommendations</tspan></text>
  <text style="fill: rgb(51, 51, 51); font-family: Ubuntu; font-size: 8px; text-anchor: middle; white-space: pre;" transform="matrix(1, 0, 0, 1, -157.343994, -8.870758)"><tspan x="427.344" y="279.133">What works, what </tspan><tspan x="427.344" dy="1.2em">​</tspan><tspan>doesn't, what do </tspan><tspan x="427.344" dy="1.2em">​</tspan><tspan>we need?</tspan></text>
  <text style="fill: url(&quot;#color-1&quot;); font-family: Lato; font-size: 11px; font-weight: 900; text-anchor: middle; white-space: pre;" x="331.871" y="102.673">Matters of Interest</text>
  <text style="fill: url(&quot;#color-1&quot;); font-family: Ubuntu; font-size: 6px; white-space: pre;" transform="matrix(1, 0, 0, 1, 106.027908, -50.21814)"><tspan x="179.795" y="162.965">• Training activities and schedules</tspan><tspan x="179.7949981689453" dy="1.2em">​</tspan>• <tspan>Training communication</tspan><tspan x="179.7949981689453" dy="1.2em">​</tspan>• <tspan>International events</tspan><tspan x="179.7949981689453" dy="1.2em">​</tspan>• <tspan>Sharing of activities</tspan><tspan x="179.7949981689453" dy="1.2em">​</tspan>• <tspan>Coordination</tspan><tspan x="179.7949981689453" dy="1.2em">​</tspan>• <tspan>Best practices</tspan><tspan x="179.7949981689453" dy="1.2em">​</tspan>• <tspan>Access</tspan><tspan x="179.7949981689453" dy="1.2em">​</tspan>• <tspan>Discoverability</tspan><tspan x="179.7949981689453" dy="1.2em">​</tspan>• <tspan>Learning trajectories</tspan><tspan x="179.7949981689453" dy="1.2em">​</tspan>• <tspan>Training materials</tspan><tspan x="179.7949981689453" dy="1.2em">​</tspan>• <tspan>DRI Trainers</tspan><tspan x="179.7949981689453" dy="1.2em">​</tspan>• <tspan>....</tspan></text>
  <text style="fill: rgb(51, 51, 51); font-family: Ubuntu; font-size: 7px; white-space: pre;" transform="matrix(1, 0, 0, 1, -14.91, 14.749481)"><tspan x="24.91" y="328.019">Ramses van Zon</tspan><tspan x="24.91" dy="1em">​</tspan><tspan>ramses.van.zon@scinet.computeontario.ca  </tspan><tspan x="24.91" dy="1em">​</tspan></text>
  <text style="fill: rgb(51, 51, 51); font-family: Ubuntu; font-size: 7px; white-space: pre; text-anchor: middle;" transform="matrix(1, 0, 0, 1, 229.360992, 7.58951)"><tspan x="40.639" y="50.08">Throughout Canada, training in DRI covers a wide range of subjects in Advanced Research Computing, Research Data Management</tspan><tspan x="40.638999938964844" dy="1.2em">​</tspan><tspan>and Cybersecurity.  But the training is largely given by local and regional organizations, which makes it hard for training staff to </tspan><tspan x="40.638999938964844" dy="1.2em">​</tspan><tspan>coordinate and for users to find training events. The NTCC, established in 2024 by the Council of CTOs, aims to improve this situation. </tspan></text>
  <text style="fill: url(&quot;#color-4&quot;); font-family: &quot;Arial Black&quot;; font-size: 6px; white-space: pre;" transform="matrix(0.991189, 0, 0, 1, 6.107414, 22.96283)"><tspan x="35.41" y="212.634">(2024/2025)</tspan><tspan x="35.41" dy="1em">​</tspan><tspan x="35.41" dy="1em">​</tspan></text>
  <text style="fill: url(&quot;#color-4&quot;); font-family: &quot;Arial Black&quot;; font-size: 6px; white-space: pre;" transform="matrix(0.991189, 0, 0, 1, 110.962677, 22.96283)"><tspan x="35.41" y="212.634">(2024/2025)</tspan><tspan x="35.41" dy="1em">​</tspan><tspan x="35.41" dy="1em">​</tspan></text>
  <text style="fill: url(&quot;#color-4&quot;); font-family: &quot;Arial Black&quot;; font-size: 6px; white-space: pre;" transform="matrix(0.991189, 0, 0, 1, 223.666763, 22.96283)"><tspan x="35.41" y="212.634">(2025-)</tspan><tspan x="35.41" dy="1em">​</tspan><tspan x="35.41" dy="1em">​</tspan></text>
  <text style="fill: url(&quot;#color-4&quot;); font-family: &quot;Arial Black&quot;; font-size: 6px; white-space: pre;" transform="matrix(0.991189, 0, 0, 1, 327.944031, 22.96283)"><tspan x="35.41" y="212.634">(2025-)</tspan><tspan x="35.41" dy="1em">​</tspan><tspan x="35.41" dy="1em">​</tspan></text>
  <text style="fill: url(&quot;#color-4&quot;); font-family: &quot;Arial Black&quot;; font-size: 6px; white-space: pre; text-anchor: middle;" x="478.36" y="227.688">FUTURE</text>
  <text style="fill: rgb(51, 51, 51); font-family: Lato; font-size: 18px; font-weight: 700; text-anchor: middle; text-transform: uppercase; white-space: pre;" x="479.357" y="258.553">. . .</text>
  <text style="fill: url(&quot;#color-4&quot;); font-family: &quot;Arial Black&quot;; font-size: 6px; white-space: pre; text-anchor: middle;" transform="matrix(0.991189, 0, 0, 1, 443.816132, 23.96283)" x="35.41" y="212.634">WORKING GROUPS</text>
  <text style="fill: rgb(51, 51, 51); font-family: Ubuntu; font-size: 6px; white-space: pre; text-anchor: middle;" x="61.368" y="267.161">https://explora.alliancecan.ca</text>
  <text style="fill: rgb(51, 51, 51); font-family: Ubuntu; font-size: 6px; white-space: pre;" x="135.019" y="267.326">https://ss25.ihpcss.org</text>
</svg>